<?xml version="1.0" encoding="utf-8"?>
<!-- Generator: Adobe Illustrator 16.0.0, SVG Export Plug-In . SVG Version: 6.00 Build 0)  -->
<!DOCTYPE svg PUBLIC "-//W3C//DTD SVG 1.1//EN" "http://www.w3.org/Graphics/SVG/1.1/DTD/svg11.dtd">
<svg version="1.1" id="Layer_1" xmlns="http://www.w3.org/2000/svg" xmlns:xlink="http://www.w3.org/1999/xlink" x="0px" y="0px"
	 width="300px" height="317px" viewBox="0 0 300 317" enable-background="new 0 0 300 317" xml:space="preserve">
<g>
	<path fill="#FFFFFF" d="M0,0v317h300V0H0z M273.641,261.245c0,9.479-5.98,13.349-13.354,13.349v13.546
		c0,15.389-12.474,27.861-27.862,27.861H67.569c-15.387,0-27.861-12.472-27.861-27.861v-13.546c-7.374,0-13.349-4.016-13.349-13.349
		c0-9.24,5.975-13.354,13.349-13.354V131.222c-7.374-0.002-13.349-4.017-13.349-13.354c0-9.094,5.975-13.35,13.349-13.35V86.136
		c0-13.464,9.547-24.7,22.248-27.296l0.087-0.016l73.828-23.771V1h28.253v34.054l73.828,23.771v-0.003
		c12.739,2.563,22.334,13.818,22.334,27.314v18.382c7.374,0,13.354,4.112,13.354,13.35c0,8.466-5.98,13.351-13.354,13.351
		c0,0.002,0,116.671,0,116.671C267.661,247.891,273.641,251.859,273.641,261.245z"/>
	<g>
		<g>
			<g opacity="0.2">
				<g>
					<path d="M39.711,105.518c48.092,0,96.184,0,144.276,0c25.434,0,50.868,0,76.302,0c1.29,0,1.29-2,0-2
						c-48.092,0-96.184,0-144.276,0c-25.434,0-50.868,0-76.302,0C38.421,103.518,38.421,105.518,39.711,105.518L39.711,105.518z"/>
				</g>
			</g>
			<g opacity="0.2">
				<g>
					<path d="M39.711,132.413c48.092,0,96.184,0,144.276,0c25.434,0,50.868,0,76.302,0c1.29,0,1.29-2,0-2
						c-48.092,0-96.184,0-144.276,0c-25.434,0-50.868,0-76.302,0C38.421,130.413,38.421,132.413,39.711,132.413L39.711,132.413z"/>
				</g>
			</g>
			<g opacity="0.2">
				<g>
					<path d="M39.711,248.891c48.092,0,96.184,0,144.276,0c25.434,0,50.868,0,76.302,0c1.29,0,1.29-2,0-2
						c-48.092,0-96.184,0-144.276,0c-25.434,0-50.868,0-76.302,0C38.421,246.891,38.421,248.891,39.711,248.891L39.711,248.891z"/>
				</g>
			</g>
			<g opacity="0.2">
				<g>
					<path d="M39.711,275.594c48.092,0,96.184,0,144.276,0c25.434,0,50.868,0,76.302,0c1.29,0,1.29-2,0-2
						c-48.092,0-96.184,0-144.276,0c-25.434,0-50.868,0-76.302,0C38.421,273.594,38.421,275.594,39.711,275.594L39.711,275.594z"/>
				</g>
			</g>
		</g>
		<path opacity="0.9" fill="#FFFFFF" d="M133.638,111.865c0,1.493-41.947,2.487-69.517,2.487c-27.574,0-30.322-0.994-30.322-2.487
			c0-1.494,7.544-2.704,35.113-2.704C96.482,109.161,133.638,110.371,133.638,111.865z"/>
		<path opacity="0.9" fill="#FFFFFF" d="M133.638,255.496c0,1.491-41.947,2.489-69.517,2.489c-27.569,0-30.322-0.998-30.322-2.489
			c0-1.489,7.544-2.703,35.117-2.703C96.486,252.793,133.638,254.006,133.638,255.496z"/>
		<path opacity="0.9" fill="#FFFFFF" d="M153.318,68.282c0,1.493-41.951,2.486-69.516,2.486c-27.57,0-30.322-0.993-30.322-2.486
			c0-1.493,7.543-2.701,35.113-2.701C116.167,65.582,153.318,66.79,153.318,68.282z"/>
		<g>
			<g>
				<path d="M62.309,59.789c24.609-7.923,49.219-15.847,73.828-23.771c0.426-0.137,0.734-0.505,0.734-0.964
					c0-11.352,0-22.703,0-34.054c-0.333,0.333-0.667,0.667-1,1c9.418,0,18.835,0,28.253,0c-0.333-0.333-0.667-0.667-1-1
					c0,11.352,0,22.703,0,34.054c0,0.459,0.308,0.827,0.734,0.964c24.609,7.923,49.219,15.847,73.828,23.771
					c0.624,0.201,1.266-0.335,1.266-0.964c0-0.001,0-0.002,0-0.003c-0.422,0.321-0.844,0.643-1.266,0.964
					c12.567,2.858,21.6,13.59,21.6,26.618c0,6.038,0,12.076,0,18.114c0,0.558,0.455,0.983,1,1
					c6.84,0.215,11.498,3.881,12.299,10.858c0.907,7.899-4.669,13.544-12.299,13.843c-0.544,0.021-1,0.438-1,1
					c0,38.891,0,77.781,0,116.671c0,0.558,0.455,0.983,1,1c7.609,0.231,12.078,4.699,12.354,12.354
					c0.277,7.69-5.104,12.145-12.354,12.349c-0.545,0.015-1,0.443-1,1c0,6.579,0.654,13.583-0.79,20.041
					C255.839,306.522,244.376,315,232.393,315c-6.224,0-12.448,0-18.672,0c-30.39,0-60.779,0-91.168,0c-16.883,0-33.767,0-50.65,0
					c-8.026,0-15.409-1.148-21.905-6.54c-10.472-8.692-9.29-21.713-9.29-33.867c0-0.558-0.455-0.983-1-1
					c-7.616-0.234-12.072-4.699-12.349-12.349c-0.276-7.628,5.166-12.128,12.349-12.354c0.545-0.017,1-0.442,1-1
					c0-38.89,0-77.779,0-116.669c0-0.558-0.455-0.983-1-1c-7.617-0.237-12.072-4.702-12.349-12.354
					c-0.274-7.574,5.216-12.118,12.349-12.35c0.545-0.018,1-0.441,1-1c0-5.931,0-11.863,0-17.794
					c0-13.129,8.763-23.979,21.513-26.919c1.257-0.29,0.724-2.218-0.531-1.929c-11.521,2.656-21.136,12.009-22.661,24.017
					c-0.942,7.417-0.321,15.163-0.321,22.625c0.333-0.333,0.667-0.667,1-1c-8.675,0.282-14.028,5.699-14.349,14.35
					c-0.324,8.75,6.069,14.096,14.349,14.354c-0.333-0.333-0.667-0.667-1-1c0,38.89,0,77.779,0,116.669c0.333-0.333,0.667-0.667,1-1
					c-8.726,0.275-14.031,5.652-14.349,14.354c-0.32,8.749,6.066,14.094,14.349,14.349c-0.333-0.333-0.667-0.667-1-1
					c0,5.84-0.663,12.147,0.338,17.929c1.739,10.05,8.133,18.195,17.478,22.278C63.438,317.822,71.665,317,79.052,317
					c28.937,0,57.874,0,86.811,0c20.743,0,41.486,0,62.229,0c8.625,0,16.383-1.368,23.319-7.126
					c10.912-9.058,9.875-22.568,9.875-35.281c-0.333,0.333-0.667,0.667-1,1c8.13-0.229,13.436-4.726,14.305-12.899
					c0.989-9.312-5.354-15.532-14.305-15.804c0.333,0.333,0.667,0.667,1,1c0-38.891,0-77.781,0-116.671
					c-0.333,0.333-0.667,0.667-1,1c8.472-0.333,13.999-5.906,14.354-14.351c0.366-8.714-6.141-14.092-14.354-14.35
					c0.333,0.333,0.667,0.667,1,1c0-7.047,0.391-14.207-0.145-21.237c-0.961-12.612-10.908-22.69-22.924-25.423
					c-0.629-0.143-1.266,0.292-1.266,0.964c0,0.001,0,0.002,0,0.003c0.422-0.321,0.844-0.643,1.266-0.964
					c-19.84-6.388-39.681-12.776-59.521-19.164c-4.045-1.303-8.09-2.605-12.136-3.908c-0.702-0.226-1.404-0.452-2.107-0.678
					c0.649,0.209,0.67,1.494,0.67,0.37c0-0.907,0-1.813,0-2.72c0-10.253,0-20.507,0-30.76c0-0.545-0.455-1-1-1
					c-9.418,0-18.835,0-28.253,0c-0.545,0-1,0.455-1,1c0,10.253,0,20.507,0,30.76c0,0.803,0,1.606,0,2.41
					c0,1.424-0.218,0.226,0.718-0.075c-0.718,0.231-1.437,0.462-2.155,0.693c-4.045,1.303-8.091,2.605-12.136,3.908
					c-19.841,6.388-39.681,12.776-59.521,19.164C60.555,58.254,61.078,60.186,62.309,59.789L62.309,59.789z"/>
			</g>
		</g>
		<g>
			<g>
				<path d="M62.309,59.789c24.609-7.923,49.219-15.847,73.828-23.771c0.426-0.137,0.734-0.505,0.734-0.964
					c0-11.352,0-22.703,0-34.054c-0.333,0.333-0.667,0.667-1,1c9.418,0,18.835,0,28.253,0c-0.333-0.333-0.667-0.667-1-1
					c0,11.352,0,22.703,0,34.054c0,0.459,0.308,0.827,0.734,0.964c24.609,7.923,49.219,15.847,73.828,23.771
					c0.624,0.201,1.266-0.335,1.266-0.964c0-0.001,0-0.002,0-0.003c-0.422,0.321-0.844,0.643-1.266,0.964
					c12.567,2.858,21.6,13.59,21.6,26.618c0,6.038,0,12.076,0,18.114c0,0.558,0.455,0.983,1,1
					c6.84,0.215,11.498,3.881,12.299,10.858c0.907,7.899-4.669,13.544-12.299,13.843c-0.544,0.021-1,0.438-1,1
					c0,38.891,0,77.781,0,116.671c0,0.558,0.455,0.983,1,1c7.609,0.231,12.078,4.699,12.354,12.354
					c0.277,7.69-5.104,12.145-12.354,12.349c-0.545,0.015-1,0.443-1,1c0,6.579,0.654,13.583-0.79,20.041
					C255.839,306.522,244.376,315,232.393,315c-6.224,0-12.448,0-18.672,0c-30.39,0-60.779,0-91.168,0c-16.883,0-33.767,0-50.65,0
					c-8.026,0-15.409-1.148-21.905-6.54c-10.472-8.692-9.29-21.713-9.29-33.867c0-0.558-0.455-0.983-1-1
					c-7.616-0.234-12.072-4.699-12.349-12.349c-0.276-7.628,5.166-12.128,12.349-12.354c0.545-0.017,1-0.442,1-1
					c0-38.89,0-77.779,0-116.669c0-0.558-0.455-0.983-1-1c-7.617-0.237-12.072-4.702-12.349-12.354
					c-0.274-7.574,5.216-12.118,12.349-12.35c0.545-0.018,1-0.441,1-1c0-5.931,0-11.863,0-17.794
					c0-13.129,8.763-23.979,21.513-26.919c1.257-0.29,0.724-2.218-0.531-1.929c-11.521,2.656-21.136,12.009-22.661,24.017
					c-0.942,7.417-0.321,15.163-0.321,22.625c0.333-0.333,0.667-0.667,1-1c-8.675,0.282-14.028,5.699-14.349,14.35
					c-0.324,8.75,6.069,14.096,14.349,14.354c-0.333-0.333-0.667-0.667-1-1c0,38.89,0,77.779,0,116.669c0.333-0.333,0.667-0.667,1-1
					c-8.726,0.275-14.031,5.652-14.349,14.354c-0.32,8.749,6.066,14.094,14.349,14.349c-0.333-0.333-0.667-0.667-1-1
					c0,5.84-0.663,12.147,0.338,17.929c1.739,10.05,8.133,18.195,17.478,22.278C63.438,317.822,71.665,317,79.052,317
					c28.937,0,57.874,0,86.811,0c20.743,0,41.486,0,62.229,0c8.625,0,16.383-1.368,23.319-7.126
					c10.912-9.058,9.875-22.568,9.875-35.281c-0.333,0.333-0.667,0.667-1,1c8.13-0.229,13.436-4.726,14.305-12.899
					c0.989-9.312-5.354-15.532-14.305-15.804c0.333,0.333,0.667,0.667,1,1c0-38.891,0-77.781,0-116.671
					c-0.333,0.333-0.667,0.667-1,1c8.472-0.333,13.999-5.906,14.354-14.351c0.366-8.714-6.141-14.092-14.354-14.35
					c0.333,0.333,0.667,0.667,1,1c0-7.047,0.391-14.207-0.145-21.237c-0.961-12.612-10.908-22.69-22.924-25.423
					c-0.629-0.143-1.266,0.292-1.266,0.964c0,0.001,0,0.002,0,0.003c0.422-0.321,0.844-0.643,1.266-0.964
					c-19.84-6.388-39.681-12.776-59.521-19.164c-4.045-1.303-8.09-2.605-12.136-3.908c-0.702-0.226-1.404-0.452-2.107-0.678
					c0.649,0.209,0.67,1.494,0.67,0.37c0-0.907,0-1.813,0-2.72c0-10.253,0-20.507,0-30.76c0-0.545-0.455-1-1-1
					c-9.418,0-18.835,0-28.253,0c-0.545,0-1,0.455-1,1c0,10.253,0,20.507,0,30.76c0,0.803,0,1.606,0,2.41
					c0,1.424-0.218,0.226,0.718-0.075c-0.718,0.231-1.437,0.462-2.155,0.693c-4.045,1.303-8.091,2.605-12.136,3.908
					c-19.841,6.388-39.681,12.776-59.521,19.164C60.555,58.254,61.078,60.186,62.309,59.789L62.309,59.789z"/>
			</g>
		</g>
		<g>
			<g>
				<path d="M62.309,59.789c24.609-7.923,49.219-15.847,73.828-23.771c0.426-0.137,0.734-0.505,0.734-0.964
					c0-11.352,0-22.703,0-34.054c-0.333,0.333-0.667,0.667-1,1c9.418,0,18.835,0,28.253,0c-0.333-0.333-0.667-0.667-1-1
					c0,11.352,0,22.703,0,34.054c0,0.459,0.308,0.827,0.734,0.964c24.609,7.923,49.219,15.847,73.828,23.771
					c0.624,0.201,1.266-0.335,1.266-0.964c0-0.001,0-0.002,0-0.003c-0.422,0.321-0.844,0.643-1.266,0.964
					c12.567,2.858,21.6,13.59,21.6,26.618c0,6.038,0,12.076,0,18.114c0,0.558,0.455,0.983,1,1
					c6.84,0.215,11.498,3.881,12.299,10.858c0.907,7.899-4.669,13.544-12.299,13.843c-0.544,0.021-1,0.438-1,1
					c0,38.891,0,77.781,0,116.671c0,0.558,0.455,0.983,1,1c7.609,0.231,12.078,4.699,12.354,12.354
					c0.277,7.69-5.104,12.145-12.354,12.349c-0.545,0.015-1,0.443-1,1c0,6.579,0.654,13.583-0.79,20.041
					C255.839,306.522,244.376,315,232.393,315c-6.224,0-12.448,0-18.672,0c-30.39,0-60.779,0-91.168,0c-16.883,0-33.767,0-50.65,0
					c-8.026,0-15.409-1.148-21.905-6.54c-10.472-8.692-9.29-21.713-9.29-33.867c0-0.558-0.455-0.983-1-1
					c-7.616-0.234-12.072-4.699-12.349-12.349c-0.276-7.628,5.166-12.128,12.349-12.354c0.545-0.017,1-0.442,1-1
					c0-38.89,0-77.779,0-116.669c0-0.558-0.455-0.983-1-1c-7.617-0.237-12.072-4.702-12.349-12.354
					c-0.274-7.574,5.216-12.118,12.349-12.35c0.545-0.018,1-0.441,1-1c0-5.931,0-11.863,0-17.794
					c0-13.129,8.763-23.979,21.513-26.919c1.257-0.29,0.724-2.218-0.531-1.929c-11.521,2.656-21.136,12.009-22.661,24.017
					c-0.942,7.417-0.321,15.163-0.321,22.625c0.333-0.333,0.667-0.667,1-1c-8.675,0.282-14.028,5.699-14.349,14.35
					c-0.324,8.75,6.069,14.096,14.349,14.354c-0.333-0.333-0.667-0.667-1-1c0,38.89,0,77.779,0,116.669c0.333-0.333,0.667-0.667,1-1
					c-8.726,0.275-14.031,5.652-14.349,14.354c-0.32,8.749,6.066,14.094,14.349,14.349c-0.333-0.333-0.667-0.667-1-1
					c0,5.84-0.663,12.147,0.338,17.929c1.739,10.05,8.133,18.195,17.478,22.278C63.438,317.822,71.665,317,79.052,317
					c28.937,0,57.874,0,86.811,0c20.743,0,41.486,0,62.229,0c8.625,0,16.383-1.368,23.319-7.126
					c10.912-9.058,9.875-22.568,9.875-35.281c-0.333,0.333-0.667,0.667-1,1c8.13-0.229,13.436-4.726,14.305-12.899
					c0.989-9.312-5.354-15.532-14.305-15.804c0.333,0.333,0.667,0.667,1,1c0-38.891,0-77.781,0-116.671
					c-0.333,0.333-0.667,0.667-1,1c8.472-0.333,13.999-5.906,14.354-14.351c0.366-8.714-6.141-14.092-14.354-14.35
					c0.333,0.333,0.667,0.667,1,1c0-7.047,0.391-14.207-0.145-21.237c-0.961-12.612-10.908-22.69-22.924-25.423
					c-0.629-0.143-1.266,0.292-1.266,0.964c0,0.001,0,0.002,0,0.003c0.422-0.321,0.844-0.643,1.266-0.964
					c-19.84-6.388-39.681-12.776-59.521-19.164c-4.045-1.303-8.09-2.605-12.136-3.908c-0.702-0.226-1.404-0.452-2.107-0.678
					c0.649,0.209,0.67,1.494,0.67,0.37c0-0.907,0-1.813,0-2.72c0-10.253,0-20.507,0-30.76c0-0.545-0.455-1-1-1
					c-9.418,0-18.835,0-28.253,0c-0.545,0-1,0.455-1,1c0,10.253,0,20.507,0,30.76c0,0.803,0,1.606,0,2.41
					c0,1.424-0.218,0.226,0.718-0.075c-0.718,0.231-1.437,0.462-2.155,0.693c-4.045,1.303-8.091,2.605-12.136,3.908
					c-19.841,6.388-39.681,12.776-59.521,19.164C60.555,58.254,61.078,60.186,62.309,59.789L62.309,59.789z"/>
			</g>
		</g>
	</g>
</g>
<g>
	<path fill="#FFFFFF" d="M522,63.5v190h300v-190H522z M792.666,219.82c0,5.658-3.006,7.967-10.379,7.967v8.084
		c0,9.185-12.475,16.628-27.861,16.628H589.568c-15.387,0-27.861-7.443-27.861-16.628v-8.084c-7.373,0-10.373-2.396-10.373-7.967
		c0-5.515,3-7.97,10.373-7.97v-69.631c-7.373-0.001-10.373-2.264-10.373-7.836c0-5.428,3-8.101,10.373-8.101v-10.971
		c0-8.036,9.549-14.742,22.248-16.291l0.088-0.009l73.828-14.187V64.5h28.254v20.324l73.828,14.187V99.01
		c12.738,1.529,22.334,8.247,22.334,16.301v10.971c7.373,0,10.379,2.454,10.379,7.968c0,5.053-3.006,7.968-10.379,7.968
		c0,0.001,0,69.632,0,69.632C789.66,211.85,792.666,214.218,792.666,219.82z"/>
	<g>
		<g opacity="0.2">
			<g>
				<path d="M561.711,127.382c48.092,0,96.184,0,144.275,0c25.434,0,50.867,0,76.303,0c1.289,0,1.289-2,0-2
					c-48.092,0-96.184,0-144.275,0c-25.436,0-50.869,0-76.303,0C560.42,125.382,560.42,127.382,561.711,127.382L561.711,127.382z"/>
			</g>
		</g>
		<g opacity="0.2">
			<g>
				<path d="M561.711,143.384c48.092,0,96.184,0,144.275,0c25.434,0,50.867,0,76.303,0c1.289,0,1.289-2,0-2
					c-48.092,0-96.184,0-144.275,0c-25.436,0-50.869,0-76.303,0C560.42,141.384,560.42,143.384,561.711,143.384L561.711,143.384z"/>
			</g>
		</g>
		<g opacity="0.2">
			<g>
				<path d="M561.711,212.685c48.092,0,96.184,0,144.275,0c25.434,0,50.867,0,76.303,0c1.289,0,1.289-2,0-2
					c-48.092,0-96.184,0-144.275,0c-25.436,0-50.869,0-76.303,0C560.42,210.685,560.42,212.685,561.711,212.685L561.711,212.685z"/>
			</g>
		</g>
		<g opacity="0.2">
			<g>
				<path d="M561.711,228.572c48.092,0,96.184,0,144.275,0c25.434,0,50.867,0,76.303,0c1.289,0,1.289-2,0-2
					c-48.092,0-96.184,0-144.275,0c-25.436,0-50.869,0-76.303,0C560.42,226.572,560.42,228.572,561.711,228.572L561.711,228.572z"/>
			</g>
		</g>
	</g>
	<path opacity="0.9" fill="#FFFFFF" d="M656.637,130.753c0,0.888-41.945,1.479-69.516,1.479c-27.574,0-30.322-0.592-30.322-1.479
		c0-0.889,7.543-1.609,35.113-1.609S656.637,129.865,656.637,130.753z"/>
	<path opacity="0.9" fill="#FFFFFF" d="M656.637,216.209c0,0.887-41.945,1.481-69.516,1.481s-30.322-0.594-30.322-1.481
		c0-0.886,7.543-1.608,35.117-1.608C619.486,214.602,656.637,215.323,656.637,216.209z"/>
	<path opacity="0.9" fill="#FFFFFF" d="M675.318,104.823c0,0.889-41.951,1.479-69.516,1.479c-27.57,0-30.322-0.591-30.322-1.479
		c0-0.888,7.543-1.606,35.113-1.606C638.166,103.216,675.318,103.935,675.318,104.823z"/>
	<g>
		<g>
			<path d="M584.309,100.16c24.609-4.714,49.219-9.428,73.828-14.143c0.432-0.083,0.734-0.546,0.734-0.964
				c0-6.754,0-13.507,0-20.261c-0.334,0.333-0.668,0.667-1,1c9.418,0,18.836,0,28.254,0c-0.334-0.333-0.668-0.667-1-1
				c0,6.754,0,13.507,0,20.261c0,0.418,0.301,0.881,0.734,0.964c24.609,4.714,49.219,9.428,73.828,14.143
				c0.631,0.121,1.266-0.275,1.266-0.964c0,0,0-0.001,0-0.001c-0.422,0.321-0.844,0.643-1.266,0.964
				c8.193,1.136,19.053,4.415,21.422,13.491c1.01,3.872,0.178,8.766,0.178,12.733c0,0.555,0.455,0.986,1,1
				c4.988,0.124,9.145,1.26,9.379,6.943c0.227,5.534-4.908,6.813-9.379,6.943c-0.545,0.016-1,0.443-1,1c0,23.139,0,46.277,0,69.416
				c0,0.555,0.455,0.987,1,1c5.02,0.121,9.146,1.23,9.379,6.945c0.234,5.81-4.703,6.833-9.379,6.942c-0.545,0.013-1,0.445-1,1
				c0,2.641,0,5.283,0,7.924c0,6.601-6.305,10.707-11.715,12.983c-5.416,2.277-11.313,2.729-17.117,2.729
				c-8.947,0-17.895,0-26.844,0c-31.297,0-62.594,0-93.891,0c-12.607,0-25.213,0-37.818,0c-4.658,0-9.162-0.067-13.789-1.001
				c-6.707-1.354-14.537-4.981-16.992-11.861c-1.127-3.16-0.414-7.482-0.414-10.773c0-0.555-0.455-0.987-1-1
				c-5.01-0.122-9.143-1.239-9.373-6.942c-0.232-5.7,4.738-6.83,9.373-6.945c0.545-0.014,1-0.445,1-1c0-23.138,0-46.276,0-69.415
				c0-0.555-0.455-0.987-1-1c-4.963-0.115-9.143-1.122-9.373-6.812c-0.232-5.682,4.723-6.95,9.373-7.076c0.545-0.015,1-0.444,1-1
				c0-3.646,0-7.292,0-10.937c0-10.181,13.561-14.158,21.514-15.276c1.273-0.179,0.729-2.106-0.531-1.929
				c-8.385,1.179-18.107,4.442-22.012,12.661c-2.09,4.396-0.971,10.791-0.971,15.481c0.334-0.333,0.668-0.667,1-1
				c-6.277,0.169-11.09,2.235-11.373,9.076c-0.287,6.904,5.596,8.678,11.373,8.812c-0.332-0.333-0.666-0.667-1-1
				c0,23.138,0,46.276,0,69.415c0.334-0.333,0.668-0.667,1-1c-6.27,0.156-11.092,2.076-11.373,8.945
				c-0.283,6.907,5.553,8.801,11.373,8.942c-0.332-0.333-0.666-0.667-1-1c0,6.479-0.607,12.025,4.098,17.133
				c5.99,6.505,16.479,8.502,24.891,8.502c6.641,0,13.279,0,19.918,0c30.57,0,61.143,0,91.713,0c16.256,0,32.512,0,48.766,0
				c6.844,0,13.48-0.373,20.012-2.801c4.881-1.814,10.514-5.407,12.357-10.573c1.373-3.85,0.826-8.24,0.826-12.262
				c-0.334,0.333-0.668,0.667-1,1c6.324-0.149,11.102-2.035,11.379-8.942c0.277-6.92-5.543-8.805-11.379-8.945
				c0.332,0.333,0.666,0.667,1,1c0-23.139,0-46.277,0-69.416c-0.334,0.333-0.668,0.667-1,1c6.098-0.178,11.08-2.25,11.379-8.943
				c0.305-6.885-5.602-8.799-11.379-8.943c0.332,0.333,0.666,0.667,1,1c0-4.885,0.844-10.581-0.873-15.251
				c-3.113-8.468-14.275-11.803-22.195-12.901c-0.631-0.087-1.266,0.25-1.266,0.964c0,0,0,0.001,0,0.001
				c0.422-0.321,0.844-0.643,1.266-0.964c-16.938-3.245-33.875-6.489-50.813-9.733c-7.471-1.431-14.943-2.862-22.414-4.294
				c-1.213-0.232,0.133,1.52,0.133-0.076c0-2.259,0-4.518,0-6.776c0-4.187,0-8.374,0-12.561c0-0.545-0.455-1-1-1
				c-9.418,0-18.836,0-28.254,0c-0.545,0-1,0.455-1,1c0,3.866,0,7.731,0,11.597c0,2.417,0,4.835,0,7.253
				c0,2.087,0.766,0.441,0.313,0.527c-7.229,1.385-14.455,2.77-21.684,4.154c-17.24,3.303-34.482,6.605-51.723,9.908
				C582.512,98.474,583.049,100.401,584.309,100.16L584.309,100.16z"/>
		</g>
	</g>
	<g>
		<g>
			<path d="M584.309,100.16c24.609-4.714,49.219-9.428,73.828-14.143c0.432-0.083,0.734-0.546,0.734-0.964
				c0-6.754,0-13.507,0-20.261c-0.334,0.333-0.668,0.667-1,1c9.418,0,18.836,0,28.254,0c-0.334-0.333-0.668-0.667-1-1
				c0,6.754,0,13.507,0,20.261c0,0.418,0.301,0.881,0.734,0.964c24.609,4.714,49.219,9.428,73.828,14.143
				c0.631,0.121,1.266-0.275,1.266-0.964c0,0,0-0.001,0-0.001c-0.422,0.321-0.844,0.643-1.266,0.964
				c8.193,1.136,19.053,4.415,21.422,13.491c1.01,3.872,0.178,8.766,0.178,12.733c0,0.555,0.455,0.986,1,1
				c4.988,0.124,9.145,1.26,9.379,6.943c0.227,5.534-4.908,6.813-9.379,6.943c-0.545,0.016-1,0.443-1,1c0,23.139,0,46.277,0,69.416
				c0,0.555,0.455,0.987,1,1c5.02,0.121,9.146,1.23,9.379,6.945c0.234,5.81-4.703,6.833-9.379,6.942c-0.545,0.013-1,0.445-1,1
				c0,2.641,0,5.283,0,7.924c0,6.601-6.305,10.707-11.715,12.983c-5.416,2.277-11.313,2.729-17.117,2.729
				c-8.947,0-17.895,0-26.844,0c-31.297,0-62.594,0-93.891,0c-12.607,0-25.213,0-37.818,0c-4.658,0-9.162-0.067-13.789-1.001
				c-6.707-1.354-14.537-4.981-16.992-11.861c-1.127-3.16-0.414-7.482-0.414-10.773c0-0.555-0.455-0.987-1-1
				c-5.01-0.122-9.143-1.239-9.373-6.942c-0.232-5.7,4.738-6.83,9.373-6.945c0.545-0.014,1-0.445,1-1c0-23.138,0-46.276,0-69.415
				c0-0.555-0.455-0.987-1-1c-4.963-0.115-9.143-1.122-9.373-6.812c-0.232-5.682,4.723-6.95,9.373-7.076c0.545-0.015,1-0.444,1-1
				c0-3.646,0-7.292,0-10.937c0-10.181,13.561-14.158,21.514-15.276c1.273-0.179,0.729-2.106-0.531-1.929
				c-8.385,1.179-18.107,4.442-22.012,12.661c-2.09,4.396-0.971,10.791-0.971,15.481c0.334-0.333,0.668-0.667,1-1
				c-6.277,0.169-11.09,2.235-11.373,9.076c-0.287,6.904,5.596,8.678,11.373,8.812c-0.332-0.333-0.666-0.667-1-1
				c0,23.138,0,46.276,0,69.415c0.334-0.333,0.668-0.667,1-1c-6.27,0.156-11.092,2.076-11.373,8.945
				c-0.283,6.907,5.553,8.801,11.373,8.942c-0.332-0.333-0.666-0.667-1-1c0,6.479-0.607,12.025,4.098,17.133
				c5.99,6.505,16.479,8.502,24.891,8.502c6.641,0,13.279,0,19.918,0c30.57,0,61.143,0,91.713,0c16.256,0,32.512,0,48.766,0
				c6.844,0,13.48-0.373,20.012-2.801c4.881-1.814,10.514-5.407,12.357-10.573c1.373-3.85,0.826-8.24,0.826-12.262
				c-0.334,0.333-0.668,0.667-1,1c6.324-0.149,11.102-2.035,11.379-8.942c0.277-6.92-5.543-8.805-11.379-8.945
				c0.332,0.333,0.666,0.667,1,1c0-23.139,0-46.277,0-69.416c-0.334,0.333-0.668,0.667-1,1c6.098-0.178,11.08-2.25,11.379-8.943
				c0.305-6.885-5.602-8.799-11.379-8.943c0.332,0.333,0.666,0.667,1,1c0-4.885,0.844-10.581-0.873-15.251
				c-3.113-8.468-14.275-11.803-22.195-12.901c-0.631-0.087-1.266,0.25-1.266,0.964c0,0,0,0.001,0,0.001
				c0.422-0.321,0.844-0.643,1.266-0.964c-16.938-3.245-33.875-6.489-50.813-9.733c-7.471-1.431-14.943-2.862-22.414-4.294
				c-1.213-0.232,0.133,1.52,0.133-0.076c0-2.259,0-4.518,0-6.776c0-4.187,0-8.374,0-12.561c0-0.545-0.455-1-1-1
				c-9.418,0-18.836,0-28.254,0c-0.545,0-1,0.455-1,1c0,3.866,0,7.731,0,11.597c0,2.417,0,4.835,0,7.253
				c0,2.087,0.766,0.441,0.313,0.527c-7.229,1.385-14.455,2.77-21.684,4.154c-17.24,3.303-34.482,6.605-51.723,9.908
				C582.512,98.474,583.049,100.401,584.309,100.16L584.309,100.16z"/>
		</g>
	</g>
	<g>
		<g>
			<path d="M584.309,99.976c24.609-4.729,49.219-9.458,73.828-14.187c0.432-0.083,0.734-0.546,0.734-0.964
				c0-6.775,0-13.549,0-20.324c-0.334,0.333-0.668,0.667-1,1c9.418,0,18.836,0,28.254,0c-0.334-0.333-0.668-0.667-1-1
				c0,6.775,0,13.549,0,20.324c0,0.418,0.301,0.881,0.734,0.964c24.609,4.729,49.219,9.458,73.828,14.187
				c0.631,0.121,1.266-0.275,1.266-0.964c0,0,0-0.001,0-0.001c-0.422,0.321-0.844,0.643-1.266,0.964
				c8.211,1.142,19.055,4.443,21.422,13.534c1.012,3.886,0.178,8.793,0.178,12.774c0,0.555,0.455,0.986,1,1
				c5.004,0.125,9.145,1.276,9.379,6.968c0.227,5.542-4.893,6.836-9.379,6.968c-0.545,0.016-1,0.443-1,1c0,23.211,0,46.421,0,69.632
				c0,0.555,0.455,0.987,1,1c5.025,0.122,9.145,1.189,9.379,6.97c0.234,5.819-4.688,6.856-9.379,6.967c-0.545,0.013-1,0.445-1,1
				c0,2.649,0,5.299,0,7.948c0,6.613-6.291,10.738-11.715,13.026c-5.414,2.284-11.311,2.738-17.117,2.738
				c-8.947,0-17.895,0-26.844,0c-31.297,0-62.594,0-93.891,0c-12.607,0-25.213,0-37.818,0c-4.658,0-9.162-0.067-13.789-1.004
				c-6.721-1.361-14.541-5.007-16.992-11.9c-1.129-3.171-0.414-7.504-0.414-10.808c0-0.555-0.455-0.987-1-1
				c-5.023-0.123-9.143-1.255-9.373-6.967c-0.232-5.709,4.725-6.854,9.373-6.97c0.545-0.014,1-0.445,1-1c0-23.21,0-46.42,0-69.631
				c0-0.555-0.455-0.987-1-1c-4.979-0.116-9.143-1.137-9.373-6.836c-0.23-5.69,4.707-6.975,9.373-7.101c0.545-0.015,1-0.444,1-1
				c0-3.657,0-7.314,0-10.971c0-10.199,13.537-14.202,21.514-15.326c1.271-0.18,0.729-2.106-0.531-1.929
				c-8.395,1.184-18.113,4.466-22.012,12.698c-2.092,4.412-0.971,10.821-0.971,15.528c0.334-0.333,0.668-0.667,1-1
				c-6.291,0.17-11.09,2.253-11.373,9.101c-0.287,6.912,5.582,8.701,11.373,8.836c-0.332-0.333-0.666-0.667-1-1
				c0,23.21,0,46.42,0,69.631c0.334-0.333,0.668-0.667,1-1c-6.283,0.157-11.092,2.093-11.373,8.97
				c-0.283,6.915,5.539,8.825,11.373,8.967c-0.332-0.333-0.666-0.667-1-1c0,6.495-0.609,12.058,4.098,17.185
				c5.982,6.518,16.473,8.528,24.891,8.528c6.641,0,13.279,0,19.918,0c30.57,0,61.143,0,91.713,0c16.256,0,32.512,0,48.766,0
				c6.846,0,13.482-0.375,20.012-2.809c4.887-1.822,10.516-5.43,12.357-10.604c1.373-3.863,0.826-8.266,0.826-12.299
				c-0.334,0.333-0.668,0.667-1,1c6.338-0.149,11.102-2.052,11.379-8.967c0.275-6.91-5.525-8.829-11.379-8.97
				c0.332,0.333,0.666,0.667,1,1c0-23.211,0-46.421,0-69.632c-0.334,0.333-0.668,0.667-1,1c6.109-0.179,11.082-2.267,11.379-8.968
				c0.305-6.893-5.586-8.823-11.379-8.968c0.332,0.333,0.666,0.667,1,1c0-4.901,0.846-10.611-0.873-15.298
				c-3.107-8.481-14.264-11.835-22.195-12.939c-0.631-0.088-1.266,0.25-1.266,0.964c0,0,0,0.001,0,0.001
				c0.422-0.321,0.844-0.643,1.266-0.964c-16.938-3.255-33.875-6.509-50.813-9.764c-7.471-1.436-14.943-2.872-22.414-4.307
				c-1.213-0.233,0.133,1.521,0.133-0.079c0-2.266,0-4.531,0-6.797c0-4.2,0-8.4,0-12.6c0-0.545-0.455-1-1-1
				c-9.418,0-18.836,0-28.254,0c-0.545,0-1,0.455-1,1c0,3.877,0,7.755,0,11.633c0,2.425,0,4.851,0,7.276
				c0,2.09,0.764,0.446,0.313,0.532c-7.229,1.389-14.455,2.778-21.684,4.167c-17.24,3.313-34.482,6.626-51.723,9.939
				C582.512,98.29,583.049,100.218,584.309,99.976L584.309,99.976z"/>
		</g>
	</g>
</g>
</svg>
